# Blender 4.1.0 Alpha
# www.blender.org
mtllib Gizmo.mtl
o Gizmo
v 0.071013 0.357006 -0.000000
v 0.139297 0.336292 -0.000000
v 0.202228 0.302655 -0.000000
v 0.257387 0.257387 -0.000000
v 0.302655 0.202228 -0.000000
v 0.336292 0.139297 -0.000000
v 0.357006 0.071013 -0.000000
v 0.364000 0.000000 0.000000
v 0.357006 -0.071013 0.000000
v 0.336292 -0.139297 0.000000
v 0.302655 -0.202228 0.000000
v 0.257387 -0.257387 0.000000
v 0.202228 -0.302655 0.000000
v 0.139297 -0.336292 0.000000
v 0.071013 -0.357006 0.000000
v 0.000000 -0.364000 0.000000
v -0.071013 -0.357006 0.000000
v -0.139297 -0.336292 0.000000
v -0.202228 -0.302655 0.000000
v -0.257387 -0.257387 0.000000
v -0.302655 -0.202228 0.000000
v -0.336292 -0.139297 0.000000
v -0.357006 -0.071013 0.000000
v -0.364000 0.000000 0.000000
v -0.357006 0.071013 -0.000000
v -0.336292 0.139297 -0.000000
v -0.302655 0.202228 -0.000000
v -0.257387 0.257387 -0.000000
v -0.202228 0.302655 -0.000000
v -0.139297 0.336292 -0.000000
v -0.071013 0.357006 -0.000000
v 0.000000 0.364000 -0.000000
v 0.063912 0.321305 -0.000000
v 0.125367 0.302663 -0.000000
v 0.182005 0.272389 -0.000000
v 0.231648 0.231648 -0.000000
v 0.272389 0.182005 -0.000000
v 0.302663 0.125367 -0.000000
v 0.321305 0.063912 -0.000000
v 0.327600 -0.000000 0.000000
v 0.321305 -0.063912 0.000000
v 0.302663 -0.125367 0.000000
v 0.272389 -0.182005 0.000000
v 0.231648 -0.231648 0.000000
v 0.182005 -0.272389 0.000000
v 0.125367 -0.302663 0.000000
v 0.063912 -0.321305 0.000000
v 0.000000 -0.327600 0.000000
v -0.063912 -0.321305 0.000000
v -0.125367 -0.302663 0.000000
v -0.182005 -0.272389 0.000000
v -0.231648 -0.231648 0.000000
v -0.272389 -0.182005 0.000000
v -0.302663 -0.125367 0.000000
v -0.321305 -0.063912 0.000000
v -0.327600 -0.000000 0.000000
v -0.321305 0.063912 -0.000000
v -0.302663 0.125367 -0.000000
v -0.272389 0.182005 -0.000000
v -0.231648 0.231648 -0.000000
v -0.182005 0.272389 -0.000000
v -0.125367 0.302663 -0.000000
v -0.063912 0.321305 -0.000000
v 0.000000 0.327600 -0.000000
v 0.054048 -0.054048 0.270240
v 0.054048 0.054048 0.270240
v -0.054048 -0.054048 0.270240
v -0.054048 0.054048 0.270240
v 0.054048 -0.054048 0.983674
v 0.054048 0.054048 0.983674
v -0.054048 -0.054048 0.983674
v -0.054048 0.054048 0.983674
v 0.054048 -0.054048 0.162144
v 0.054048 0.054048 0.162144
v -0.054048 -0.054048 0.162144
v -0.054048 0.054048 0.162144
v 0.324288 -0.064858 0.324288
v 0.324288 0.064858 0.324288
v -0.324288 -0.064858 0.324288
v -0.324288 0.064858 0.324288
v 0.108096 -0.043238 0.108096
v 0.108096 0.043238 0.108096
v -0.108096 -0.043238 0.108096
v -0.108096 0.043238 0.108096
v 0.007154 -0.002862 0.000000
v 0.007154 0.002862 0.000000
v -0.007154 -0.002862 0.000000
v -0.007154 0.002862 0.000000
v 0.039018 0.196157 -0.000000
v 0.076537 0.184776 -0.000000
v 0.111114 0.166294 -0.000000
v 0.141421 0.141421 -0.000000
v 0.166294 0.111114 -0.000000
v 0.184776 0.076537 -0.000000
v 0.196157 0.039018 -0.000000
v 0.200000 0.000000 0.000000
v 0.196157 -0.039018 0.000000
v 0.184776 -0.076537 0.000000
v 0.166294 -0.111114 0.000000
v 0.141421 -0.141421 0.000000
v 0.111114 -0.166294 0.000000
v 0.076537 -0.184776 0.000000
v 0.039018 -0.196157 0.000000
v 0.000000 -0.200000 0.000000
v -0.039018 -0.196157 0.000000
v -0.076537 -0.184776 0.000000
v -0.111114 -0.166294 0.000000
v -0.141421 -0.141421 0.000000
v -0.166294 -0.111114 0.000000
v -0.184776 -0.076537 0.000000
v -0.196157 -0.039018 0.000000
v -0.200000 0.000000 0.000000
v -0.196157 0.039018 -0.000000
v -0.184776 0.076537 -0.000000
v -0.166294 0.111114 -0.000000
v -0.141421 0.141421 -0.000000
v -0.111114 0.166294 -0.000000
v -0.076537 0.184776 -0.000000
v -0.039018 0.196157 -0.000000
v 0.000000 0.200000 -0.000000
v 0.035116 0.176541 -0.000000
v 0.068883 0.166298 -0.000000
v 0.100003 0.149665 -0.000000
v 0.127279 0.127279 -0.000000
v 0.149665 0.100003 -0.000000
v 0.166298 0.068883 -0.000000
v 0.176541 0.035116 -0.000000
v 0.180000 -0.000000 0.000000
v 0.176541 -0.035116 0.000000
v 0.166298 -0.068883 0.000000
v 0.149665 -0.100003 0.000000
v 0.127279 -0.127279 0.000000
v 0.100003 -0.149665 0.000000
v 0.068883 -0.166298 0.000000
v 0.035116 -0.176541 0.000000
v 0.000000 -0.180000 0.000000
v -0.035116 -0.176541 0.000000
v -0.068883 -0.166298 0.000000
v -0.100003 -0.149665 0.000000
v -0.127279 -0.127279 0.000000
v -0.149665 -0.100003 0.000000
v -0.166298 -0.068883 0.000000
v -0.176541 -0.035116 0.000000
v -0.180000 -0.000000 0.000000
v -0.176541 0.035116 -0.000000
v -0.166298 0.068883 -0.000000
v -0.149665 0.100003 -0.000000
v -0.127279 0.127279 -0.000000
v -0.100003 0.149665 -0.000000
v -0.068883 0.166298 -0.000000
v -0.035116 0.176541 -0.000000
v 0.000000 0.180000 -0.000000
v 0.054625 0.274620 -0.000000
v 0.107151 0.258686 -0.000000
v 0.155560 0.232811 -0.000000
v 0.197990 0.197990 -0.000000
v 0.232811 0.155560 -0.000000
v 0.258686 0.107151 -0.000000
v 0.274620 0.054625 -0.000000
v 0.280000 0.000000 0.000000
v 0.274620 -0.054625 0.000000
v 0.258686 -0.107151 0.000000
v 0.232811 -0.155560 0.000000
v 0.197990 -0.197990 0.000000
v 0.155560 -0.232811 0.000000
v 0.107151 -0.258686 0.000000
v 0.054625 -0.274620 0.000000
v 0.000000 -0.280000 0.000000
v -0.054625 -0.274620 0.000000
v -0.107151 -0.258686 0.000000
v -0.155560 -0.232811 0.000000
v -0.197990 -0.197990 0.000000
v -0.232811 -0.155560 0.000000
v -0.258686 -0.107151 0.000000
v -0.274620 -0.054625 0.000000
v -0.280000 0.000000 0.000000
v -0.274620 0.054625 -0.000000
v -0.258686 0.107151 -0.000000
v -0.232811 0.155560 -0.000000
v -0.197990 0.197990 -0.000000
v -0.155560 0.232811 -0.000000
v -0.107151 0.258686 -0.000000
v -0.054625 0.274620 -0.000000
v 0.000000 0.280000 -0.000000
v 0.049163 0.247158 -0.000000
v 0.096436 0.232818 -0.000000
v 0.140004 0.209530 -0.000000
v 0.178191 0.178191 -0.000000
v 0.209530 0.140004 -0.000000
v 0.232818 0.096436 -0.000000
v 0.247158 0.049163 -0.000000
v 0.252000 -0.000000 0.000000
v 0.247158 -0.049163 0.000000
v 0.232818 -0.096436 0.000000
v 0.209530 -0.140004 0.000000
v 0.178191 -0.178191 0.000000
v 0.140004 -0.209530 0.000000
v 0.096436 -0.232818 0.000000
v 0.049163 -0.247158 0.000000
v 0.000000 -0.252000 0.000000
v -0.049163 -0.247158 0.000000
v -0.096436 -0.232818 0.000000
v -0.140004 -0.209530 0.000000
v -0.178191 -0.178191 0.000000
v -0.209530 -0.140004 0.000000
v -0.232818 -0.096436 0.000000
v -0.247158 -0.049163 0.000000
v -0.252000 -0.000000 0.000000
v -0.247158 0.049163 -0.000000
v -0.232818 0.096436 -0.000000
v -0.209530 0.140004 -0.000000
v -0.178191 0.178191 -0.000000
v -0.140004 0.209530 -0.000000
v -0.096436 0.232818 -0.000000
v -0.049163 0.247158 -0.000000
v 0.000000 0.252000 -0.000000
vn -0.0000 -0.0000 1.0000
vn -0.0000 -1.0000 -0.0000
vn -1.0000 -0.0000 -0.0000
vn -0.0000 1.0000 -0.0000
vn 0.1961 -0.0000 0.9806
vn 1.0000 -0.0000 -0.0000
vn -0.0000 -0.9978 -0.0665
vn -0.0000 0.9978 -0.0665
vn -0.7071 -0.0000 -0.7071
vn -0.0000 -0.9368 -0.3499
vn 0.7071 -0.0000 -0.7071
vn -0.0000 0.9806 -0.1961
vn -0.1961 -0.0000 0.9806
vn -0.0000 -0.9806 -0.1961
vn -0.0000 -0.0000 -1.0000
vn 0.7309 -0.0000 -0.6825
vn -0.0000 0.9368 -0.3499
vn -0.7309 -0.0000 -0.6825
vt 0.000000 0.000000
vt 0.625000 0.500000
vt 0.875000 0.500000
vt 0.875000 0.750000
vt 0.625000 0.750000
vt 0.375000 0.750000
vt 0.625000 1.000000
vt 0.375000 1.000000
vt 0.375000 0.000000
vt 0.625000 0.000000
vt 0.625000 0.250000
vt 0.375000 0.250000
vt 0.125000 0.500000
vt 0.375000 0.500000
vt 0.125000 0.750000
s 0
usemtl Material
f 10/1/1 42/1/1 43/1/1 11/1/1
f 17/1/1 49/1/1 50/1/1 18/1/1
f 48/1/1 16/1/1 15/1/1 47/1/1
f 19/1/1 51/1/1 52/1/1 20/1/1
f 57/1/1 25/1/1 24/1/1 56/1/1
f 34/1/1 35/1/1 3/1/1 2/1/1
f 61/1/1 29/1/1 28/1/1 60/1/1
f 36/1/1 4/1/1 3/1/1 35/1/1
f 13/1/1 45/1/1 46/1/1 14/1/1
f 48/1/1 49/1/1 17/1/1 16/1/1
f 60/1/1 28/1/1 27/1/1 59/1/1
f 38/1/1 6/1/1 5/1/1 37/1/1
f 8/1/1 7/1/1 39/1/1 40/1/1
f 39/1/1 7/1/1 6/1/1 38/1/1
f 41/1/1 9/1/1 8/1/1 40/1/1
f 21/1/1 53/1/1 54/1/1 22/1/1
f 64/1/1 33/1/1 1/1/1 32/1/1
f 52/1/1 53/1/1 21/1/1 20/1/1
f 22/1/1 54/1/1 55/1/1 23/1/1
f 9/1/1 41/1/1 42/1/1 10/1/1
f 11/1/1 43/1/1 44/1/1 12/1/1
f 30/1/1 62/1/1 63/1/1 31/1/1
f 29/1/1 61/1/1 62/1/1 30/1/1
f 1/1/1 33/1/1 34/1/1 2/1/1
f 12/1/1 44/1/1 45/1/1 13/1/1
f 37/1/1 5/1/1 4/1/1 36/1/1
f 59/1/1 27/1/1 26/1/1 58/1/1
f 18/1/1 50/1/1 51/1/1 19/1/1
f 58/1/1 26/1/1 25/1/1 57/1/1
f 64/1/1 32/1/1 31/1/1 63/1/1
f 14/1/1 46/1/1 47/1/1 15/1/1
f 56/1/1 24/1/1 23/1/1 55/1/1
f 65/2/2 69/3/2 71/4/2 67/5/2
f 68/6/3 67/5/3 71/7/3 72/8/3
f 72/9/1 71/10/1 69/11/1 70/12/1
f 70/13/4 66/14/4 68/6/4 72/15/4
f 67/5/5 68/6/5 80/6/5 79/5/5
f 70/12/6 69/11/6 65/2/6 66/14/6
f 75/5/7 67/5/7 79/5/7 83/5/7
f 74/14/8 66/14/8 78/14/8 82/14/8
f 68/6/4 66/14/4 74/14/4 76/6/4
f 65/2/2 67/5/2 75/5/2 73/2/2
f 79/5/9 80/6/9 84/6/9 83/5/9
f 81/2/10 83/5/10 87/5/10 85/2/10
f 78/14/11 77/2/11 81/2/11 82/14/11
f 76/6/12 74/14/12 82/14/12 84/6/12
f 66/14/13 65/2/13 77/2/13 78/14/13
f 65/2/7 73/2/7 81/2/7 77/2/7
f 68/6/8 76/6/8 84/6/8 80/6/8
f 73/2/14 75/5/14 83/5/14 81/2/14
f 86/14/15 85/2/15 87/5/15 88/6/15
f 82/14/16 81/2/16 85/2/16 86/14/16
f 84/6/17 82/14/17 86/14/17 88/6/17
f 83/5/18 84/6/18 88/6/18 87/5/18
f 98/1/1 130/1/1 131/1/1 99/1/1
f 105/1/1 137/1/1 138/1/1 106/1/1
f 136/1/1 104/1/1 103/1/1 135/1/1
f 107/1/1 139/1/1 140/1/1 108/1/1
f 145/1/1 113/1/1 112/1/1 144/1/1
f 122/1/1 123/1/1 91/1/1 90/1/1
f 149/1/1 117/1/1 116/1/1 148/1/1
f 124/1/1 92/1/1 91/1/1 123/1/1
f 101/1/1 133/1/1 134/1/1 102/1/1
f 136/1/1 137/1/1 105/1/1 104/1/1
f 148/1/1 116/1/1 115/1/1 147/1/1
f 126/1/1 94/1/1 93/1/1 125/1/1
f 96/1/1 95/1/1 127/1/1 128/1/1
f 127/1/1 95/1/1 94/1/1 126/1/1
f 129/1/1 97/1/1 96/1/1 128/1/1
f 109/1/1 141/1/1 142/1/1 110/1/1
f 152/1/1 121/1/1 89/1/1 120/1/1
f 140/1/1 141/1/1 109/1/1 108/1/1
f 110/1/1 142/1/1 143/1/1 111/1/1
f 97/1/1 129/1/1 130/1/1 98/1/1
f 99/1/1 131/1/1 132/1/1 100/1/1
f 118/1/1 150/1/1 151/1/1 119/1/1
f 117/1/1 149/1/1 150/1/1 118/1/1
f 89/1/1 121/1/1 122/1/1 90/1/1
f 100/1/1 132/1/1 133/1/1 101/1/1
f 125/1/1 93/1/1 92/1/1 124/1/1
f 147/1/1 115/1/1 114/1/1 146/1/1
f 106/1/1 138/1/1 139/1/1 107/1/1
f 146/1/1 114/1/1 113/1/1 145/1/1
f 152/1/1 120/1/1 119/1/1 151/1/1
f 102/1/1 134/1/1 135/1/1 103/1/1
f 144/1/1 112/1/1 111/1/1 143/1/1
f 162/1/1 194/1/1 195/1/1 163/1/1
f 169/1/1 201/1/1 202/1/1 170/1/1
f 200/1/1 168/1/1 167/1/1 199/1/1
f 171/1/1 203/1/1 204/1/1 172/1/1
f 209/1/1 177/1/1 176/1/1 208/1/1
f 186/1/1 187/1/1 155/1/1 154/1/1
f 213/1/1 181/1/1 180/1/1 212/1/1
f 188/1/1 156/1/1 155/1/1 187/1/1
f 165/1/1 197/1/1 198/1/1 166/1/1
f 200/1/1 201/1/1 169/1/1 168/1/1
f 212/1/1 180/1/1 179/1/1 211/1/1
f 190/1/1 158/1/1 157/1/1 189/1/1
f 160/1/1 159/1/1 191/1/1 192/1/1
f 191/1/1 159/1/1 158/1/1 190/1/1
f 193/1/1 161/1/1 160/1/1 192/1/1
f 173/1/1 205/1/1 206/1/1 174/1/1
f 216/1/1 185/1/1 153/1/1 184/1/1
f 204/1/1 205/1/1 173/1/1 172/1/1
f 174/1/1 206/1/1 207/1/1 175/1/1
f 161/1/1 193/1/1 194/1/1 162/1/1
f 163/1/1 195/1/1 196/1/1 164/1/1
f 182/1/1 214/1/1 215/1/1 183/1/1
f 181/1/1 213/1/1 214/1/1 182/1/1
f 153/1/1 185/1/1 186/1/1 154/1/1
f 164/1/1 196/1/1 197/1/1 165/1/1
f 189/1/1 157/1/1 156/1/1 188/1/1
f 211/1/1 179/1/1 178/1/1 210/1/1
f 170/1/1 202/1/1 203/1/1 171/1/1
f 210/1/1 178/1/1 177/1/1 209/1/1
f 216/1/1 184/1/1 183/1/1 215/1/1
f 166/1/1 198/1/1 199/1/1 167/1/1
f 208/1/1 176/1/1 175/1/1 207/1/1
